<svg id="visual" viewBox="0 0 1920 1080" width="1920" height="1080" xmlns="http://www.w3.org/2000/svg" xmlns:xlink="http://www.w3.org/1999/xlink" version="1.1"><rect x="0" y="0" width="1920" height="1080" fill="#353636"></rect><path d="M0 296L29.2 284C58.3 272 116.7 248 174.8 224.3C233 200.7 291 177.3 349.2 162C407.3 146.7 465.7 139.3 523.8 181.5C582 223.7 640 315.3 698.2 323.3C756.3 331.3 814.7 255.7 872.8 264C931 272.3 989 364.7 1047.2 402.3C1105.3 440 1163.7 423 1221.8 407.7C1280 392.3 1338 378.7 1396.2 364.7C1454.3 350.7 1512.7 336.3 1570.8 350.7C1629 365 1687 408 1745.2 399C1803.3 390 1861.7 329 1890.8 298.5L1920 268L1920 1081L1890.8 1081C1861.7 1081 1803.3 1081 1745.2 1081C1687 1081 1629 1081 1570.8 1081C1512.7 1081 1454.3 1081 1396.2 1081C1338 1081 1280 1081 1221.8 1081C1163.7 1081 1105.3 1081 1047.2 1081C989 1081 931 1081 872.8 1081C814.7 1081 756.3 1081 698.2 1081C640 1081 582 1081 523.8 1081C465.7 1081 407.3 1081 349.2 1081C291 1081 233 1081 174.8 1081C116.7 1081 58.3 1081 29.2 1081L0 1081Z" fill="#d71195"></path><path d="M0 476L29.2 461.2C58.3 446.3 116.7 416.7 174.8 429C233 441.3 291 495.7 349.2 486C407.3 476.3 465.7 402.7 523.8 388.8C582 375 640 421 698.2 403.3C756.3 385.7 814.7 304.3 872.8 279.5C931 254.7 989 286.3 1047.2 342.8C1105.3 399.3 1163.7 480.7 1221.8 518.7C1280 556.7 1338 551.3 1396.2 540.5C1454.3 529.7 1512.7 513.3 1570.8 496.5C1629 479.7 1687 462.3 1745.2 464.2C1803.3 466 1861.7 487 1890.8 497.5L1920 508L1920 1081L1890.8 1081C1861.7 1081 1803.3 1081 1745.2 1081C1687 1081 1629 1081 1570.8 1081C1512.7 1081 1454.3 1081 1396.2 1081C1338 1081 1280 1081 1221.8 1081C1163.7 1081 1105.3 1081 1047.2 1081C989 1081 931 1081 872.8 1081C814.7 1081 756.3 1081 698.2 1081C640 1081 582 1081 523.8 1081C465.7 1081 407.3 1081 349.2 1081C291 1081 233 1081 174.8 1081C116.7 1081 58.3 1081 29.2 1081L0 1081Z" fill="#c60794"></path><path d="M0 305L29.2 320.8C58.3 336.7 116.7 368.3 174.8 395.2C233 422 291 444 349.2 441.5C407.3 439 465.7 412 523.8 417.2C582 422.3 640 459.7 698.2 454.2C756.3 448.7 814.7 400.3 872.8 370.5C931 340.7 989 329.3 1047.2 355.5C1105.3 381.7 1163.7 445.3 1221.8 479.2C1280 513 1338 517 1396.2 493.8C1454.3 470.7 1512.7 420.3 1570.8 437.3C1629 454.3 1687 538.7 1745.2 571.7C1803.3 604.7 1861.7 586.3 1890.8 577.2L1920 568L1920 1081L1890.8 1081C1861.7 1081 1803.3 1081 1745.2 1081C1687 1081 1629 1081 1570.8 1081C1512.7 1081 1454.3 1081 1396.2 1081C1338 1081 1280 1081 1221.8 1081C1163.7 1081 1105.3 1081 1047.2 1081C989 1081 931 1081 872.8 1081C814.7 1081 756.3 1081 698.2 1081C640 1081 582 1081 523.8 1081C465.7 1081 407.3 1081 349.2 1081C291 1081 233 1081 174.8 1081C116.7 1081 58.3 1081 29.2 1081L0 1081Z" fill="#b40193"></path><path d="M0 651L29.2 623.7C58.3 596.3 116.7 541.7 174.8 527.5C233 513.3 291 539.7 349.2 560.2C407.3 580.7 465.7 595.3 523.8 569.3C582 543.3 640 476.7 698.2 484.2C756.3 491.7 814.7 573.3 872.8 608.2C931 643 989 631 1047.2 628.2C1105.3 625.3 1163.7 631.7 1221.8 607.2C1280 582.7 1338 527.3 1396.2 524.7C1454.3 522 1512.7 572 1570.8 567.2C1629 562.3 1687 502.7 1745.2 482C1803.3 461.3 1861.7 479.7 1890.8 488.8L1920 498L1920 1081L1890.8 1081C1861.7 1081 1803.3 1081 1745.2 1081C1687 1081 1629 1081 1570.8 1081C1512.7 1081 1454.3 1081 1396.2 1081C1338 1081 1280 1081 1221.8 1081C1163.7 1081 1105.3 1081 1047.2 1081C989 1081 931 1081 872.8 1081C814.7 1081 756.3 1081 698.2 1081C640 1081 582 1081 523.8 1081C465.7 1081 407.3 1081 349.2 1081C291 1081 233 1081 174.8 1081C116.7 1081 58.3 1081 29.2 1081L0 1081Z" fill="#a10091"></path><path d="M0 667L29.2 640.2C58.3 613.3 116.7 559.7 174.8 570.7C233 581.7 291 657.3 349.2 680.3C407.3 703.3 465.7 673.7 523.8 639.5C582 605.3 640 566.7 698.2 579.7C756.3 592.7 814.7 657.3 872.8 656C931 654.7 989 587.3 1047.2 580.5C1105.3 573.7 1163.7 627.3 1221.8 644.7C1280 662 1338 643 1396.2 631.3C1454.3 619.7 1512.7 615.3 1570.8 611.5C1629 607.7 1687 604.3 1745.2 610.3C1803.3 616.3 1861.7 631.7 1890.8 639.3L1920 647L1920 1081L1890.8 1081C1861.7 1081 1803.3 1081 1745.2 1081C1687 1081 1629 1081 1570.8 1081C1512.7 1081 1454.3 1081 1396.2 1081C1338 1081 1280 1081 1221.8 1081C1163.7 1081 1105.3 1081 1047.2 1081C989 1081 931 1081 872.8 1081C814.7 1081 756.3 1081 698.2 1081C640 1081 582 1081 523.8 1081C465.7 1081 407.3 1081 349.2 1081C291 1081 233 1081 174.8 1081C116.7 1081 58.3 1081 29.2 1081L0 1081Z" fill="#8f008e"></path><path d="M0 786L29.2 760C58.3 734 116.7 682 174.8 658.5C233 635 291 640 349.2 634.3C407.3 628.7 465.7 612.3 523.8 603.8C582 595.3 640 594.7 698.2 614.5C756.3 634.3 814.7 674.7 872.8 676.3C931 678 989 641 1047.2 627C1105.3 613 1163.7 622 1221.8 622.2C1280 622.3 1338 613.7 1396.2 631.2C1454.3 648.7 1512.7 692.3 1570.8 712.2C1629 732 1687 728 1745.2 736.8C1803.3 745.7 1861.7 767.3 1890.8 778.2L1920 789L1920 1081L1890.8 1081C1861.7 1081 1803.3 1081 1745.2 1081C1687 1081 1629 1081 1570.8 1081C1512.7 1081 1454.3 1081 1396.2 1081C1338 1081 1280 1081 1221.8 1081C1163.7 1081 1105.3 1081 1047.2 1081C989 1081 931 1081 872.8 1081C814.7 1081 756.3 1081 698.2 1081C640 1081 582 1081 523.8 1081C465.7 1081 407.3 1081 349.2 1081C291 1081 233 1081 174.8 1081C116.7 1081 58.3 1081 29.2 1081L0 1081Z" fill="#7b008b"></path><path d="M0 835L29.2 807.7C58.3 780.3 116.7 725.7 174.8 729.2C233 732.7 291 794.3 349.2 826C407.3 857.7 465.7 859.3 523.8 840.2C582 821 640 781 698.2 762.7C756.3 744.3 814.7 747.7 872.8 735.3C931 723 989 695 1047.2 695.3C1105.3 695.7 1163.7 724.3 1221.8 736.7C1280 749 1338 745 1396.2 741.7C1454.3 738.3 1512.7 735.7 1570.8 755.8C1629 776 1687 819 1745.2 835.2C1803.3 851.3 1861.7 840.7 1890.8 835.3L1920 830L1920 1081L1890.8 1081C1861.7 1081 1803.3 1081 1745.2 1081C1687 1081 1629 1081 1570.8 1081C1512.7 1081 1454.3 1081 1396.2 1081C1338 1081 1280 1081 1221.8 1081C1163.7 1081 1105.3 1081 1047.2 1081C989 1081 931 1081 872.8 1081C814.7 1081 756.3 1081 698.2 1081C640 1081 582 1081 523.8 1081C465.7 1081 407.3 1081 349.2 1081C291 1081 233 1081 174.8 1081C116.7 1081 58.3 1081 29.2 1081L0 1081Z" fill="#670088"></path><path d="M0 785L29.2 788.5C58.3 792 116.7 799 174.8 815.8C233 832.7 291 859.3 349.2 870.5C407.3 881.7 465.7 877.3 523.8 865C582 852.7 640 832.3 698.2 820.8C756.3 809.3 814.7 806.7 872.8 812C931 817.3 989 830.7 1047.2 835.8C1105.3 841 1163.7 838 1221.8 845.7C1280 853.3 1338 871.7 1396.2 885.2C1454.3 898.7 1512.7 907.3 1570.8 885.2C1629 863 1687 810 1745.2 810.3C1803.3 810.7 1861.7 864.3 1890.8 891.2L1920 918L1920 1081L1890.8 1081C1861.7 1081 1803.3 1081 1745.2 1081C1687 1081 1629 1081 1570.8 1081C1512.7 1081 1454.3 1081 1396.2 1081C1338 1081 1280 1081 1221.8 1081C1163.7 1081 1105.3 1081 1047.2 1081C989 1081 931 1081 872.8 1081C814.7 1081 756.3 1081 698.2 1081C640 1081 582 1081 523.8 1081C465.7 1081 407.3 1081 349.2 1081C291 1081 233 1081 174.8 1081C116.7 1081 58.3 1081 29.2 1081L0 1081Z" fill="#510084"></path><path d="M0 970L29.2 956.2C58.3 942.3 116.7 914.7 174.8 896.5C233 878.3 291 869.7 349.2 863.5C407.3 857.3 465.7 853.7 523.8 867.3C582 881 640 912 698.2 911C756.3 910 814.7 877 872.8 875C931 873 989 902 1047.2 908.7C1105.3 915.3 1163.7 899.7 1221.8 886.7C1280 873.7 1338 863.3 1396.2 870.3C1454.3 877.3 1512.7 901.7 1570.8 917C1629 932.3 1687 938.7 1745.2 924.3C1803.3 910 1861.7 875 1890.8 857.5L1920 840L1920 1081L1890.8 1081C1861.7 1081 1803.3 1081 1745.2 1081C1687 1081 1629 1081 1570.8 1081C1512.7 1081 1454.3 1081 1396.2 1081C1338 1081 1280 1081 1221.8 1081C1163.7 1081 1105.3 1081 1047.2 1081C989 1081 931 1081 872.8 1081C814.7 1081 756.3 1081 698.2 1081C640 1081 582 1081 523.8 1081C465.7 1081 407.3 1081 349.2 1081C291 1081 233 1081 174.8 1081C116.7 1081 58.3 1081 29.2 1081L0 1081Z" fill="#370080"></path><path d="M0 940L29.2 950.5C58.3 961 116.7 982 174.8 982.2C233 982.3 291 961.7 349.2 960C407.3 958.3 465.7 975.7 523.8 980.8C582 986 640 979 698.2 986.7C756.3 994.3 814.7 1016.7 872.8 1020.7C931 1024.7 989 1010.3 1047.2 995.2C1105.3 980 1163.7 964 1221.8 952.3C1280 940.7 1338 933.3 1396.2 946.3C1454.3 959.3 1512.7 992.7 1570.8 992.2C1629 991.7 1687 957.3 1745.2 945C1803.3 932.7 1861.7 942.3 1890.8 947.2L1920 952L1920 1081L1890.8 1081C1861.7 1081 1803.3 1081 1745.2 1081C1687 1081 1629 1081 1570.8 1081C1512.7 1081 1454.3 1081 1396.2 1081C1338 1081 1280 1081 1221.8 1081C1163.7 1081 1105.3 1081 1047.2 1081C989 1081 931 1081 872.8 1081C814.7 1081 756.3 1081 698.2 1081C640 1081 582 1081 523.8 1081C465.7 1081 407.3 1081 349.2 1081C291 1081 233 1081 174.8 1081C116.7 1081 58.3 1081 29.2 1081L0 1081Z" fill="#0f007b"></path></svg>